<svg fill="#1431ae" id="Layer_32" height="512" viewBox="0 0 64 64" width="512" xmlns="http://www.w3.org/2000/svg" data-name="Layer 32"><path d="m58 11h-6v-5a3 3 0 0 0 -3-3h-34a3 3 0 0 0 -3 3v5h-6a5.006 5.006 0 0 0 -5 5v30a5.006 5.006 0 0 0 5 5h18.82l-.667 4h-1.153a3 3 0 0 0 0 6h18a3 3 0 0 0 0-6h-1.153l-.667-4h18.82a5.006 5.006 0 0 0 5-5v-30a5.006 5.006 0 0 0 -5-5zm-46 6v21a3 3 0 0 0 3 3h34a3 3 0 0 0 3-3v-21h9v26h-58v-26zm2-8h36v29a1 1 0 0 1 -1 1h-34a1 1 0 0 1 -1-1zm44 4a3 3 0 0 1 2.816 2h-8.816v-2zm-43-8h34a1 1 0 0 1 1 1v1h-36v-1a1 1 0 0 1 1-1zm-9 8h6v2h-8.816a3 3 0 0 1 2.816-2zm36 45a1 1 0 0 1 -1 1h-18a1 1 0 0 1 0-2h18a1 1 0 0 1 1 1zm-4.18-3h-11.64l.667-4h10.306zm20.18-6h-52a3 3 0 0 1 -3-3v-1h58v1a3 3 0 0 1 -3 3z"/><path d="m17 23h6a1 1 0 0 0 1-1v-3a3.982 3.982 0 0 0 -1.619-3.195 2.972 2.972 0 0 0 .619-1.805 3 3 0 0 0 -6 0 2.972 2.972 0 0 0 .619 1.8 3.982 3.982 0 0 0 -1.619 3.2v3a1 1 0 0 0 1 1zm5-2h-4v-2a2 2 0 0 1 4 0zm-3-7a1 1 0 1 1 1 1 1 1 0 0 1 -1-1z"/><path d="m17 37h6a1 1 0 0 0 1-1v-3a3.982 3.982 0 0 0 -1.619-3.195 2.972 2.972 0 0 0 .619-1.805 3 3 0 0 0 -6 0 2.972 2.972 0 0 0 .619 1.8 3.982 3.982 0 0 0 -1.619 3.2v3a1 1 0 0 0 1 1zm5-2h-4v-2a2 2 0 0 1 4 0zm-3-7a1 1 0 1 1 1 1 1 1 0 0 1 -1-1z"/><path d="m30 12h18v2h-18z"/><path d="m27 16h17v2h-17z"/><path d="m46 16h2v2h-2z"/><path d="m30 27h18v2h-18z"/><path d="m27 31h17v2h-17z"/><path d="m46 31h2v2h-2z"/><path d="m29 35h14v2h-14z"/></svg>